<svg xmlns="http://www.w3.org/2000/svg" width="148" height="148" viewBox="0 0 148 148">
<g>
<path d="M 148.00 86.00 L 148.00 148.00 L 74.11 148.00 L 73.93 137.56 C73.77,128.31 73.99,126.83 75.86,124.45 C80.37,118.72 80.43,112.78 76.04,105.35 C74.45,102.64 74.00,100.14 74.00,93.94 L 74.00 86.00 L 148.00 86.00 ZM 111.20 128.80 C111.87,129.47 115.11,130.00 118.58,130.00 C125.34,130.00 127.63,128.57 126.52,125.05 C125.99,123.39 125.02,123.00 121.43,123.00 C117.71,123.00 117.00,122.69 117.00,121.06 C117.00,119.55 117.81,119.05 120.65,118.81 C122.78,118.63 124.75,117.77 125.39,116.75 C127.08,114.05 124.95,111.56 120.65,111.19 C117.81,110.95 117.00,110.45 117.00,108.94 C117.00,107.37 117.71,107.00 120.75,106.98 C125.89,106.96 127.42,105.82 126.62,102.61 C125.99,100.12 125.65,100.00 119.18,100.00 C115.24,100.00 111.90,100.50 111.20,101.20 C109.54,102.86 109.54,127.14 111.20,128.80 ZM 92.20 128.80 C92.86,129.46 93.89,130.00 94.50,130.00 C97.27,130.00 98.00,127.33 98.00,117.30 C98.00,107.04 98.01,107.00 100.45,107.00 C103.44,107.00 105.22,104.28 103.88,101.78 C103.09,100.29 101.55,100.00 94.50,100.00 C87.19,100.00 85.93,100.26 85.04,101.93 C83.80,104.24 86.00,107.00 89.07,107.00 C90.85,107.00 91.00,107.79 91.00,117.30 C91.00,123.98 91.42,128.02 92.20,128.80 ZM 67.46 66.78 C62.00,72.82 61.69,73.00 56.86,73.00 C56.48,73.00 56.13,73.00 55.80,73.01 C54.18,73.02 53.16,73.03 52.89,72.59 C52.44,71.84 54.14,69.79 58.72,64.28 C59.27,63.62 59.86,62.91 60.49,62.14 C65.77,55.76 66.83,54.94 69.49,55.20 C71.87,55.44 72.56,56.03 72.80,58.03 C73.02,59.93 71.68,62.12 67.46,66.78 ZM 125.07 71.96 C123.07,73.03 109.00,73.44 109.00,72.43 C109.00,72.12 110.46,70.10 112.25,67.95 C115.15,64.46 115.99,64.03 120.05,64.02 C122.55,64.01 125.14,64.54 125.80,65.20 C127.64,67.04 127.23,70.81 125.07,71.96 Z" fill="rgb(5,80,188)"/>
<path d="M 57.40 128.15 C69.93,134.01 81.92,123.12 78.57,110.90 C80.09,115.87 79.19,120.22 75.86,124.45 C73.99,126.83 73.77,128.31 73.93,137.56 L 74.11 148.00 L 0.00 148.00 L 0.00 86.00 L 74.00 86.00 L 74.00 73.00 L 107.93 73.00 L 117.06 62.25 C122.08,56.34 127.05,50.49 128.09,49.25 C130.32,46.61 136.07,46.17 138.00,48.49 C138.68,49.32 141.17,57.53 143.53,66.74 L 147.82 83.50 L 148.00 0.00 L 148.00 86.00 L 74.00 86.00 L 74.00 93.94 C74.00,100.14 74.45,102.64 76.04,105.35 C76.28,105.74 76.50,106.14 76.71,106.52 C74.08,102.08 70.11,100.00 64.35,100.00 C48.18,100.02 42.91,121.38 57.40,128.15 ZM 31.18 129.13 C33.11,130.36 35.62,130.18 36.67,128.75 C38.53,126.21 45.30,103.21 44.66,101.57 C44.23,100.43 43.14,99.97 41.39,100.18 C39.36,100.43 38.43,101.41 37.29,104.50 C36.47,106.70 35.35,109.73 34.79,111.24 C34.23,112.74 33.41,113.75 32.96,113.48 C32.52,113.20 31.18,110.06 30.00,106.49 C28.17,101.01 27.48,100.00 25.54,100.00 C20.70,100.00 20.68,101.96 25.41,115.53 C27.86,122.55 30.46,128.67 31.18,129.13 ZM 68.00 121.50 C66.41,122.32 64.74,122.98 64.30,122.96 C61.98,122.84 58.12,119.71 57.02,117.05 C55.95,114.47 56.01,113.63 57.43,111.46 C62.44,103.82 73.22,107.66 71.57,116.49 C71.10,118.99 70.07,120.43 68.00,121.50 ZM 125.07 71.96 C127.23,70.81 127.64,67.04 125.80,65.20 C125.14,64.54 122.55,64.01 120.05,64.02 C115.99,64.03 115.15,64.46 112.25,67.95 C110.46,70.10 109.00,72.12 109.00,72.43 C109.00,73.44 123.07,73.03 125.07,71.96 ZM 31.49 68.75 C27.79,73.07 25.90,73.75 22.75,71.92 C20.64,70.69 20.45,66.70 22.42,65.07 C23.24,64.38 26.18,64.02 29.48,64.20 L 35.13 64.50 ZM 0.00 147.00 C0.00,147.55 0.70,148.00 1.56,148.00 C2.42,148.00 2.84,147.55 2.50,147.00 C2.16,146.45 1.46,146.00 0.94,146.00 C0.42,146.00 0.00,146.45 0.00,147.00 Z" fill="rgb(40,129,249)"/>
<path d="M 0.00 0.00 L 0.08 41.75 C0.12,64.71 0.33,83.05 0.54,82.50 C0.75,81.95 2.77,74.30 5.02,65.50 C7.27,56.70 9.68,48.93 10.37,48.23 C11.31,47.27 16.27,47.02 30.66,47.23 L 49.70 47.50 L 39.30 60.00 L 28.89 72.50 L 39.60 72.79 C39.88,72.79 40.14,72.80 40.40,72.81 C45.43,72.94 48.21,73.02 50.55,72.06 C52.28,71.35 53.78,70.07 55.77,67.85 C53.41,70.75 52.56,72.03 52.89,72.59 C53.16,73.03 54.18,73.02 55.80,73.01 C56.13,73.00 56.48,73.00 56.86,73.00 C61.69,73.00 62.00,72.82 67.46,66.78 C69.40,64.64 70.73,63.02 71.58,61.71 C71.01,62.66 70.26,63.71 69.32,64.84 C67.21,67.40 64.87,70.29 64.12,71.25 C62.83,72.91 63.98,73.00 85.34,73.00 L 74.00 73.00 L 74.00 86.00 L 0.00 86.00 ZM 99.89 50.64 C99.12,51.25 95.97,52.06 92.88,52.43 C87.06,53.14 84.00,51.78 84.00,48.50 C84.00,46.33 86.93,44.00 89.64,44.00 C92.10,44.00 92.13,43.90 91.86,36.60 C91.57,28.80 92.66,26.00 96.00,26.00 C99.11,26.00 99.99,28.49 100.64,39.12 C101.14,47.38 100.99,49.76 99.89,50.64 ZM 31.49 68.75 L 35.13 64.50 L 29.48 64.20 C26.18,64.02 23.24,64.38 22.42,65.07 C20.45,66.70 20.64,70.69 22.75,71.92 C25.90,73.75 27.79,73.07 31.49,68.75 ZM 69.28 55.19 C67.13,55.02 65.98,55.68 62.46,59.79 C65.90,55.67 66.99,55.00 69.28,55.19 ZM 72.77 59.00 C72.83,58.66 72.83,58.34 72.80,58.03 C72.70,57.22 72.53,56.64 72.20,56.22 C72.87,56.87 73.06,57.81 72.77,59.00 Z" fill="rgb(109,170,236)"/>
<path d="M 0.00 147.00 C0.00,146.45 0.42,146.00 0.94,146.00 C1.46,146.00 2.16,146.45 2.50,147.00 C2.84,147.55 2.42,148.00 1.56,148.00 C0.70,148.00 0.00,147.55 0.00,147.00 ZM 31.18 129.13 C30.46,128.67 27.86,122.55 25.41,115.53 C20.68,101.96 20.70,100.00 25.54,100.00 C27.48,100.00 28.17,101.01 30.00,106.49 C31.18,110.06 32.52,113.20 32.96,113.48 C33.41,113.75 34.23,112.74 34.79,111.24 C35.35,109.73 36.47,106.70 37.29,104.50 C38.43,101.41 39.36,100.43 41.39,100.18 C43.14,99.97 44.23,100.43 44.66,101.57 C45.30,103.21 38.53,126.21 36.67,128.75 C35.62,130.18 33.11,130.36 31.18,129.13 ZM 57.40 128.15 C42.91,121.38 48.18,100.02 64.35,100.00 C70.51,100.00 74.61,102.38 77.23,107.48 C84.14,120.95 71.10,134.55 57.40,128.15 ZM 68.00 121.50 C70.07,120.43 71.10,118.99 71.57,116.49 C73.22,107.66 62.44,103.82 57.43,111.46 C56.01,113.63 55.95,114.47 57.02,117.05 C58.12,119.71 61.98,122.84 64.30,122.96 C64.74,122.98 66.41,122.32 68.00,121.50 ZM 92.20 128.80 C91.42,128.02 91.00,123.98 91.00,117.30 C91.00,107.79 90.85,107.00 89.07,107.00 C86.00,107.00 83.80,104.24 85.04,101.93 C85.93,100.26 87.19,100.00 94.50,100.00 C101.55,100.00 103.09,100.29 103.88,101.78 C105.22,104.28 103.44,107.00 100.45,107.00 C98.01,107.00 98.00,107.04 98.00,117.30 C98.00,127.33 97.27,130.00 94.50,130.00 C93.89,130.00 92.86,129.46 92.20,128.80 ZM 111.20 128.80 C109.54,127.14 109.54,102.86 111.20,101.20 C111.90,100.50 115.24,100.00 119.18,100.00 C125.65,100.00 125.99,100.12 126.62,102.61 C127.42,105.82 125.89,106.96 120.75,106.98 C117.71,107.00 117.00,107.37 117.00,108.94 C117.00,110.45 117.81,110.95 120.65,111.19 C124.95,111.56 127.08,114.05 125.39,116.75 C124.75,117.77 122.78,118.63 120.65,118.81 C117.81,119.05 117.00,119.55 117.00,121.06 C117.00,122.69 117.71,123.00 121.43,123.00 C125.02,123.00 125.99,123.39 126.52,125.05 C127.63,128.57 125.34,130.00 118.58,130.00 C115.11,130.00 111.87,129.47 111.20,128.80 ZM 0.08 41.75 L 0.00 0.00 L 74.00 0.00 L 148.00 0.00 L 147.91 41.75 L 147.82 83.50 L 143.53 66.74 C141.17,57.53 138.68,49.32 138.00,48.49 C136.07,46.17 130.32,46.61 128.09,49.25 C127.05,50.49 122.08,56.34 117.06,62.25 L 107.93 73.00 L 85.34 73.00 C63.98,73.00 62.83,72.91 64.12,71.25 C64.87,70.29 67.21,67.40 69.32,64.84 C74.05,59.11 74.10,55.66 69.46,55.20 C66.80,54.94 65.79,55.69 61.30,61.20 C51.39,73.38 51.89,73.11 39.60,72.79 L 28.89 72.50 L 39.30 60.00 L 49.70 47.50 L 30.66 47.23 C16.27,47.02 11.31,47.27 10.37,48.23 C9.68,48.93 7.27,56.70 5.02,65.50 C2.77,74.30 0.75,81.95 0.54,82.50 C0.33,83.05 0.12,64.71 0.08,41.75 ZM 99.89 50.64 C100.99,49.76 101.14,47.38 100.64,39.12 C99.99,28.49 99.11,26.00 96.00,26.00 C92.66,26.00 91.57,28.80 91.86,36.60 C92.13,43.90 92.10,44.00 89.64,44.00 C86.93,44.00 84.00,46.33 84.00,48.50 C84.00,51.78 87.06,53.14 92.88,52.43 C95.97,52.06 99.12,51.25 99.89,50.64 Z" fill="rgb(241,242,249)"/>
</g>
</svg>